<mxfile host="app.diagrams.net" modified="2023-11-20T14:39:15.795Z" agent="Mozilla/5.0 (Windows NT 10.0; Win64; x64) AppleWebKit/537.36 (KHTML, like Gecko) Chrome/116.0.0.0 Safari/537.36 OPR/102.0.0.0 (Edition std-2)" version="22.1.3" etag="dVNupXxhX0PoVBuVvM7T" type="github">
  <diagram name="PÃ¡gina-1" id="bW5pMw_qJvHBlDgs5e5N">
    <mxGraphModel>
      <root>
        <mxCell id="0" />
        <mxCell id="1" parent="0" />
      </root>
    </mxGraphModel>
  </diagram>
</mxfile>
